<?xml version="1.0" encoding="UTF-8" standalone="no"?><!DOCTYPE svg PUBLIC "-//W3C//DTD SVG 1.1//EN" "http://www.w3.org/Graphics/SVG/1.1/DTD/svg11.dtd"><svg width="100%" height="100%" viewBox="0 0 334 118" version="1.1" xmlns="http://www.w3.org/2000/svg" xmlns:xlink="http://www.w3.org/1999/xlink" xml:space="preserve" style="fill-rule:evenodd;clip-rule:evenodd;stroke-linejoin:round;stroke-miterlimit:1.41421;"><g><path d="M38.092,6.717l0,-5.38l-23.713,0l0,57.244l23.713,0l0,-5.385l-18.328,0l0,-20.51l16.062,0l0,-5.46l-16.062,0l0,-20.509l18.328,0Z" style="fill:#231f20;fill-rule:nonzero;"/><path d="M77.856,1.337l0,40.435l-15.788,-40.435l-4.802,0l0,57.244l5.384,0l0,-40.475l15.859,40.475l4.732,0l0,-57.244l-5.385,0Z" style="fill:#231f20;fill-rule:nonzero;"/><path d="M125.416,14.673l0,10.682c-0.081,7.484 -5.15,7.855 -8.578,8.031l-6.624,0l0,-26.675l6.624,0.006c5.151,0.153 8.468,2.122 8.578,7.956Zm1.243,-10.079c-2.589,-2.239 -6.074,-3.257 -9.821,-3.257l-12.012,0l0,57.244l5.388,0l0,-19.815l6.624,0c2.518,0 5.921,-0.386 8.837,-2.317c2.933,-1.915 5.157,-5.507 5.128,-11.094l0,-10.682c0.013,-4.393 -1.552,-7.84 -4.144,-10.079Z" style="fill:#231f20;fill-rule:nonzero;"/><path d="M171.421,25.355c-0.078,7.484 -5.153,7.855 -8.574,8.031l-6.556,0l0,-26.669l6.556,0c5.145,0.153 8.459,2.122 8.574,7.956l0,10.682Zm-1.763,12.237c3.784,-1.573 7.303,-5.286 7.226,-12.237l0,-10.682c0.009,-4.398 -1.571,-7.85 -4.189,-10.084c-2.606,-2.234 -6.11,-3.252 -9.848,-3.252l-12.019,0l0,57.244l5.463,0l0,-19.807l6.556,0c0.439,-0.006 0.928,-0.003 1.442,-0.024l9.251,19.831l5.893,0l-9.775,-20.989Z" style="fill:#231f20;fill-rule:nonzero;"/><path d="M219.762,13.97l0,31.977c-0.119,5.904 -3.27,7.883 -7.95,8.031c-4.774,-0.152 -7.915,-2.127 -8.039,-8.031l0,-31.977c0.124,-5.903 3.265,-7.883 8.039,-8.031c4.675,0.148 7.831,2.128 7.95,8.031Zm1.436,-10.125c-2.477,-2.262 -5.825,-3.291 -9.386,-3.291c-3.561,0 -6.929,1.029 -9.423,3.286c-2.498,2.257 -4.006,5.717 -3.996,10.13l0,31.977c-0.01,4.416 1.498,7.873 3.996,10.125c2.494,2.263 5.862,3.292 9.423,3.286l0.031,0c3.545,0 6.888,-1.036 9.355,-3.286c2.483,-2.26 3.96,-5.709 3.95,-10.125l0,-31.977c0.01,-4.413 -1.467,-7.865 -3.95,-10.125Z" style="fill:#231f20;fill-rule:nonzero;"/><path d="M252.121,32.684l6.624,0c3.534,0.49 8.495,0.513 8.583,7.961l0,4.6c-0.114,5.831 -3.432,7.8 -8.583,7.953l-6.624,0l0,-20.514Zm6.51,-5.456l-6.51,0l0,-20.514l6.624,0l0,0.005c5.151,0.153 8.469,2.117 8.583,7.956l0,4.603c-0.088,7.445 -5.049,7.464 -8.697,7.95Zm14.082,-7.95l0,-4.603c0.01,-4.392 -1.555,-7.845 -4.147,-10.078c-2.586,-2.245 -6.074,-3.263 -9.821,-3.258l-12.01,-0.005l0,57.249l12.01,0c3.747,0 7.235,-1.021 9.821,-3.262c2.592,-2.234 4.157,-5.686 4.147,-10.076l0,-4.6c0.051,-5.328 -2.052,-8.747 -4.789,-10.682c2.737,-1.916 4.846,-5.305 4.789,-10.685Z" style="fill:#231f20;fill-rule:nonzero;"/><path d="M318.012,6.717l0,-5.38l-23.711,0l0,57.244l23.711,0l0,-5.385l-18.327,0l0,-20.51l16.063,0l0,-5.46l-16.063,0l0,-20.509l18.327,0Z" style="fill:#231f20;fill-rule:nonzero;"/><rect x="1.662" y="100.338" width="329.065" height="1.99" style="fill:#231f20;fill-rule:nonzero;"/><path d="M21.847,95.271l-1.409,-1.407l-5.064,5.066l0,-16.025l-1.993,0l0,18.018l-6.471,6.471l1.407,1.408l5.064,-5.064l0,11.97l1.993,0l0,-13.963l6.473,-6.474Z" style="fill:#231f20;fill-rule:nonzero;"/><path d="M325.473,95.271l-1.406,-1.407l-5.064,5.064l0,-16.021l-1.994,0l0,18.014l-6.47,6.471l1.407,1.407l5.063,-5.064l0,11.973l1.994,0l0,-13.966l6.47,-6.471Z" style="fill:#231f20;fill-rule:nonzero;"/></g></svg>